<svg xmlns="http://www.w3.org/2000/svg" xml:space="preserve" width="188.98mm" height="27.7592mm" style="shape-rendering:geometricPrecision; text-rendering:geometricPrecision; image-rendering:optimizeQuality; fill-rule:evenodd; clip-rule:evenodd" viewBox="0 0 192.071 28.2132" xmlns:xlink="http://www.w3.org/1999/xlink" id="B141x0-p-"><style>#S1bpIapWa-{transform:  translate(-602.14286,-417.36218px);}#r1faUTTZab{transform:  translate(534.64286,392.96318px);}@keyframes H1g4kxRWTWAnimation {
	0% {
		transform: translate(-300px, 0px);
	}
	100% {
		transform: translate(300px, 0px);
	}
}

#H1g4kxRWTW {
	transform-origin: 50% 50% !important;
	animation: H1g4kxRWTWAnimation 3s;
}</style>
 <defs>
  
 </defs>
 <g id="H1g4kxRWTW">
  <metadata id="CorelCorpID_0Corel-Layer"/>
  <path class="fil0" d="M168.547 27.4626l-10.636 0 0 -3.25295 6.63162 0 0 -18.0187c-4.87943,6.63203 -9.63455,14.3895 -14.5147,21.3969l-3.75391 0c5.88115,-9.25941 11.8868,-18.2688 18.1431,-27.5282l4.12986 0 0 27.4029z" id="S1bVklCWTZ"/>
  <path class="fil0" d="M191.821 3.31302c-5.18596,0 -12.4168,-0.93891 -16.0167,3.25356 -2.42096,2.81958 -3.62849,7.00727 -2.37726,10.761 1.50207,3.25285 4.42349,6.20089 9.98093,6.73875l4.95951 -0.0598634c0,-3.28669 -0.175423,-6.804 -0.175423,-10.1828l3.87923 0 0 13.5142c-8.25881,0.37534 -17.3928,0.37534 -21.021,-7.50762 -1.87731,-4.12956 -1.87741,-9.88559 0.875185,-13.6393 3.33904,-5.46363 9.37792,-6.18219 15.5362,-6.19093l0.232034 0c1.38092,0.00193108 2.76652,0.0369954 4.12722,0.0596601l0 3.25336z" id="SJz4ygCWab"/>
  <path class="fil0" d="M93.5961 14.1994l7.38251 10.7606 0.375036 0 16.5167 -24.6498 4.12935 0 0 27.403 -10.5108 0 0 -3.12814 6.50692 0 0 -18.269 -14.5149 21.3971 -4.50449 0c-3.25346,-4.25437 -5.88125,-8.88438 -9.25952,-13.1386l-0.125113 13.1386 -3.75401 0 0 -27.2778 3.75401 0 0 13.3883c3.12835,-4.12885 6.3814,-8.88418 9.134,-13.5135l4.00434 0 -9.1341 13.8892z" id="HymN1eR-pb"/>
  <path class="fil0" d="M140.143 4.18922c1.74712,2.75534 1.75139,6.88195 -0.250024,9.50934 -1.00131,1.25124 -2.75331,2.7529 -4.50439,3.12814 2.00212,3.87913 5.00495,7.13248 7.13187,10.8865l-4.00383 -0.125317 -9.63536 -13.6389c2.75331,-0.125317 5.88125,0.625567 7.75856,-1.50167 1.25103,-1.12612 1.62607,-2.7525 1.62607,-4.50429 -0.249516,-1.8768 -1.43774,-3.00659 -3.19004,-3.88258 -2.06595,-0.826399 -5.23403,-0.496897 -7.94608,-0.496897l-0.125113 24.1496 -3.62849 0 0 -27.403c7.56749,0 13.628,-1.07073 16.7668,3.87903z" id="BkVV1lAZT-"/>
  <polygon class="fil0" points="84.5869,27.7132 80.8329,27.7132 80.8329,0.435407 84.5869,0.435407 " id="S1BVJlAbTW"/>
  <path class="fil0" d="M61.3128 27.8382l-4.12905 0 0 -27.1529 3.75401 0 0 21.6474c5.13047,-6.88195 9.88478,-14.5149 14.8897,-21.7727l3.87913 0 -18.3938 27.2782z" id="ByLEklCbpZ"/>
  <polygon class="fil0" points="55.9328,27.8382 52.1788,27.8382 52.1788,0.685329 55.9328,0.685329 " id="ryDNJlAWp-"/>
  <polygon class="fil0" points="27.4029,28.0882 24.0248,28.0882 8.88428,6.56658 8.75906,28.2132 5.25568,28.2132 5.25568,0.810544 8.75906,0.810544 23.5245,22.2076 23.6492,0.685329 27.4029,0.685329 " id="B1uNylR-T-"/>
  <path class="fil0" d="M47.674 5.44056c2.75321,3.12814 4.00424,7.88276 2.87761,12.3876 -1.12582,4.25406 -4.87983,8.50833 -9.25911,9.63445 -2.87375,0.721613 -8.22649,0.501064 -12.5131,0.501064l0 -27.2783c6.88205,0.25043 14.6403,-1.00081 18.8946,4.75523z" id="HkKVkx0bTb"/>
  <polygon class="fil0" points="4.00444,28.2132 0,28.2132 0,0.810544 4.00444,0.810544 " id="By9NkeCZ6W"/>
  <path class="fil1" d="M45.422 7.94303c2.25204,2.87781 3.00283,7.75765 1.12612,11.011 -1.62709,2.87781 -4.5048,5.13047 -8.00818,5.63102l-6.00657 0 0 -20.3958c4.88004,-0.125317 10.0101,-0.375645 12.8886,3.75381z" id="HyjNyeCb6-"/>
 </g>
</svg>